<?xml version="1.0" encoding="utf-8"?>
<!-- Generator: Adobe Illustrator 18.1.1, SVG Export Plug-In . SVG Version: 6.00 Build 0)  -->
<svg version="1.1" id="Layer_1" xmlns="http://www.w3.org/2000/svg" xmlns:xlink="http://www.w3.org/1999/xlink" x="0px" y="0px"
	 viewBox="0 0 20 40" enable-background="new 0 0 20 40" xml:space="preserve">
<g>
	<polygon opacity="0.75" fill="#BE1E2D" points="20,13.1 10,17.1 0,13.1 10,9.1 	"/>
	<polygon opacity="0.75" fill="#1C75BC" points="20,10.1 10,14 0,10.1 10,6.1 	"/>
	<polygon opacity="0.75" fill="#F15A29" points="20,7 10,11 0,7 10,3 	"/>
	<polygon opacity="0.75" fill="#39B54A" points="20,4 10,7.9 0,4 10,0 	"/>
	<polygon fill="#666766" points="10,34.9 3,32.1 0,33.3 10,37.3 20,33.3 17,32.1 	"/>
	<polygon fill="#666766" points="10,31.8 3,29.1 0,30.3 10,34.2 20,30.3 17,29.1 	"/>
	<polygon fill="#666766" points="20,24.2 10,28.1 0,24.2 10,20.2 	"/>
	<polygon fill="#666766" points="10,28.8 3,26 0,27.2 10,31.2 20,27.2 17,26 	"/>
</g>
</svg>
