<?xml version="1.0" encoding="utf-8"?>
<!-- Generator: Adobe Illustrator 18.1.1, SVG Export Plug-In . SVG Version: 6.00 Build 0)  -->
<svg version="1.1" id="Layer_1" xmlns="http://www.w3.org/2000/svg" xmlns:xlink="http://www.w3.org/1999/xlink" x="0px" y="0px"
	 viewBox="0 0 25 50" enable-background="new 0 0 25 50" xml:space="preserve">
<path fill="#ABABAB" d="M12.5,3.3c5,0,9,4,9,9s-4,9-9,9s-9-4-9-9S7.6,3.3,12.5,3.3 M12.5,0.3c-6.6,0-12,5.4-12,12s5.4,12,12,12
	s12-5.4,12-12S19.2,0.3,12.5,0.3L12.5,0.3z"/>
<rect x="11.5" y="6.2" fill="#ABABAB" width="2.6" height="2.6"/>
<rect x="11.5" y="10.5" fill="#ABABAB" width="2.6" height="8.4"/>
<path fill="#FFFFFF" d="M12.5,28.3c5,0,9,4,9,9s-4,9-9,9s-9-4-9-9S7.6,28.3,12.5,28.3 M12.5,25.3c-6.6,0-12,5.4-12,12
	c0,6.6,5.4,12,12,12s12-5.4,12-12C24.5,30.7,19.2,25.3,12.5,25.3L12.5,25.3z"/>
<rect x="11.5" y="31.2" fill="#FFFFFF" width="2.6" height="2.6"/>
<rect x="11.5" y="35.5" fill="#FFFFFF" width="2.6" height="8.4"/>
</svg>
